/* XPM */
static char *north[] = {
/* width height num_colors chars_per_pixel */
"64 64 2 1",
/* colors */
". c #00ff00",
"# c #00a400",
/* pixels */
"................................................................",
"................................................................",
"..####..........####..........####..........####................",
"..####..........####..........####..........####................",
"..####..........####..........####..........####................",
"..####..........####..........####..........####................",
"................................................................",
"................................................................",
"................................................................",
"................................................................",
"..####..........####..........####..........####................",
"..####..........####..........####..........####................",
"..####..........####..........####..........####................",
"..####..........####..........####..........####................",
"................................................................",
"................................................................",
"................................................................",
"................................................................",
"..####..........####..........####..........####................",
"..####..........####..........####..........####................",
"..####..........####..........####..........####................",
"..####..........####..........####..........####................",
"................................................................",
"................................................................",
"................................................................",
"................................................................",
"..####..........####..........####..........####................",
"..####..........####..........####..........####................",
"..####..........####..........####..........####................",
"..####..........####..........####..........####................",
"................................................................",
"................................................................",
"................................................................",
"................................................................",
"..####..........####..........####..........####................",
"..####..........####..........####..........####................",
"..####..........####..........####..........####................",
"..####..........####..........####..........####................",
"................................................................",
"................................................................",
"................................................................",
"................................................................",
"..####..........####..........####..........####................",
"..####..........####..........####..........####................",
"..####..........####..........####..........####................",
"..####..........####..........####..........####................",
"................................................................",
"................................................................",
"................................................................",
"................................................................",
"..####..........####..........####..........####................",
"..####..........####..........####..........####................",
"..####..........####..........####..........####................",
"..####..........####..........####..........####................",
"................................................................",
"................................................................",
"................................................................",
"................................................................",
"..####..........####..........####..........####................",
"..####..........####..........####..........####................",
"..####..........####..........####..........####................",
"..####..........####..........####..........####................",
"................................................................",
"................................................................"
};
