/* XPM */
static char *_bois[] = {
/* columns rows colors chars-per-pixel */
"64 64 193 2 ",
"   c #812700",
".  c #903600",
"X  c #933A00",
"o  c #9A3E00",
"O  c #9C4400",
"+  c #974D00",
"@  c #9C4C00",
"#  c #9D5604",
"$  c #A24600",
"%  c #A34C00",
"&  c #AA4E01",
"*  c #A45301",
"=  c #AD5300",
"-  c #AE5900",
";  c #A55E0B",
":  c #B15501",
">  c #B45B00",
",  c #BA5F01",
"<  c #B15409",
"1  c #B55908",
"2  c #BA5D0E",
"3  c #BC5E10",
"4  c #AA6406",
"5  c #A7610D",
"6  c #AC640E",
"7  c #B56000",
"8  c #BC6401",
"9  c #BD6A02",
"0  c #B2660B",
"q  c #BD630B",
"w  c #B66B0E",
"e  c #B96B0E",
"r  c #BD7201",
"t  c #AB6411",
"y  c #B06713",
"u  c #BE6112",
"i  c #B36A13",
"p  c #BE6C13",
"a  c #B56719",
"s  c #B66B19",
"d  c #B86F1B",
"f  c #BD7116",
"g  c #BC711C",
"h  c #C16501",
"j  c #C36B03",
"k  c #C96E03",
"l  c #C2660A",
"z  c #C56D0A",
"x  c #CB6F0B",
"c  c #C57204",
"v  c #CB7404",
"b  c #C67C04",
"n  c #CD7A06",
"m  c #C7730A",
"M  c #CB740C",
"N  c #CD790C",
"B  c #D07505",
"V  c #D27E06",
"C  c #D3760C",
"Z  c #D37C0D",
"A  c #D87F0E",
"S  c #C26514",
"D  c #C46A14",
"F  c #C86F12",
"G  c #C46C19",
"H  c #C57315",
"J  c #CD7513",
"K  c #CC7A13",
"L  c #C37118",
"P  c #CD741B",
"I  c #CB7C1E",
"U  c #D17612",
"Y  c #D37C13",
"T  c #D97E12",
"R  c #D2771F",
"E  c #D57D1A",
"W  c #DA7E1B",
"Q  c #CC6E20",
"!  c #CD7624",
"~  c #CC7A22",
"^  c #D27623",
"/  c #D47C24",
"(  c #D97E24",
")  c #D07629",
"_  c #D2792A",
"`  c #DA7E2D",
"'  c #CF8107",
"]  c #CF8109",
"[  c #D18207",
"{  c #D5820C",
"}  c #DA840D",
"|  c #DC880E",
" . c #CF8010",
".. c #D68114",
"X. c #DB8414",
"o. c #D68A13",
"O. c #DD8915",
"+. c #D6811B",
"@. c #DC841B",
"#. c #DD8A1B",
"$. c #DF901E",
"%. c #E08B0F",
"&. c #E18516",
"*. c #E18A15",
"=. c #E1861C",
"-. c #E28B1C",
";. c #E98D1D",
":. c #E79215",
">. c #E89317",
",. c #E3921C",
"<. c #E2911F",
"1. c #E3921E",
"2. c #E2911D",
"3. c #E7901E",
"4. c #E6951E",
"5. c #E4931C",
"6. c #E8901E",
"7. c #E9941C",
"8. c #E9941D",
"9. c #E5981D",
"0. c #E9991E",
"q. c #D78524",
"w. c #DE8620",
"e. c #DC8420",
"r. c #DE8624",
"t. c #DD8422",
"y. c #DE8821",
"u. c #DA8826",
"i. c #DD8826",
"p. c #DE8C24",
"a. c #DA8728",
"s. c #DA862C",
"d. c #DA852D",
"f. c #DF8828",
"g. c #DE8928",
"h. c #DE8E2A",
"j. c #DF9221",
"k. c #DF902B",
"l. c #E18721",
"z. c #E08721",
"x. c #E18920",
"c. c #E18922",
"v. c #E28822",
"b. c #E18F20",
"n. c #E28A25",
"m. c #E58D27",
"M. c #E38C22",
"N. c #EA8C24",
"B. c #E18828",
"V. c #E68D2C",
"C. c #EB8E29",
"Z. c #E09322",
"A. c #E39220",
"S. c #E59120",
"D. c #E59321",
"F. c #E59122",
"G. c #E59223",
"H. c #E69123",
"J. c #E79324",
"K. c #E39524",
"L. c #E19425",
"P. c #E79524",
"I. c #E49626",
"U. c #E49323",
"Y. c #E99320",
"T. c #E99222",
"R. c #E89121",
"E. c #E99520",
"W. c #E99522",
"Q. c #EB9523",
"!. c #EB9724",
"~. c #EA9424",
"^. c #EA9324",
"/. c #E59825",
"(. c #E59922",
"). c #EA9A24",
"_. c #E4932B",
"`. c #EB9628",
"'. c #EC9729",
"]. c #EA922B",
"[. c #EC992A",
"{. c #EB9A2B",
"}. c #F09728",
"|. c #F09B2B",
" X c #F19D2C",
".X c #F09B2F",
"XX c #E79031",
"oX c #EA9232",
"OX c #EB9A32",
"+X c #F19C30",
"@X c #EBA12F",
"#X c #EEA231",
"$X c #F3A234",
/* pixels */
"v #...@.T U x.#.@.Z ..M j @.X.y.- g.#.} *.*.C U @.j P.#.#.4.O.Z.e I /.[ O.@.&.&.X.-.v A A *.*.T g.> q P Y #.M.> X m.#.} X.X.z.x ",
"v #...X.T U x.#.@.Z ..M j @.X.y.- g.#.} *.*.C U X...-.S.#.4.O.Z.e I /.[ O.@.&.&.&.&.Z Z A *.*.T g.> q P ..-.S.7 $ n.=.} X.X.z.x ",
"v #...X.T Z x.#.@.Z ..M h @.@.y.- g.#.} *.*.C T T -.-.~.#.4.O.Z.e I /.[ O.@.&.&.*.} X.Z { *.=.T g.> q P @.E.`.8 > w.;.X.X.X.x.m ",
"v #...X...Z -.@.@.Z T M h @.@.y.- i.#.} *.*.C T X.-.[.S.#.4.O.Z.e ~ /.[ @.@.&.&.-.Z X.V { =.O.X.g.> q P #.~.'.h z @.R.} X.X.x.m ",
"m #...X.X.X.@.@.@.U T @.h Z @.y.* i.S.} *.;.T T ..#.S.2.2.,.,.j.w I P.] @.@.=.&.;.B X.Z { E.O.X.B.> = P @.~.J.T 8 m.=.{ X.X.x.m ",
"m #...X.X.@...@.@.U T @.9 Z @.y.* u.S.} *.;.T T ..#.S.2.2.,.,.j.w I P.] @.@.=.&.;.B X.Z { E.X.X.r.q = P @.R.S.T > #.R.{ X.X.x.m ",
"m -.X.X.T M.Z #.#.T T @.9 Z -.y.* u.S.} *.;.T T ..#.S.2.2.2.,.Z.w I P.] @.@.=.&.;.B X.Z { E.X.@.@.l $ R @.R.S.T > T |.} } X.x.J ",
"m #.X.X.A N.M x.#.T T @.9 U =.#.* a.S.} *.;.T T ..#.S.2.2.2.,.Z.0 ~ L.] @.#.=.=.;.B X.Z { E.X.X.w.l O / T R.S.T > J $XO.} X.n.J ",
"M x.X.X.{ R.T U #.....T 9 j =.#.* a.S.} *.7.o.o.Y ..[.Z.2.2.,.Z.0 L L.O...#.=.=.-.Z A &.6.-.X.X.w.q o q T X.4.#.= 9  XE.{ -.i.J ",
"M x.X.X.{ R.T U #.X.X.T q l =.#.* a.S.} *.4.o.o.N @.`.S.2.2.,.Z.0 L j.O.J.x.=.N.&.} V *.6.-.&.X.w.l o 2 T #.;.-.7 8 -.-.X.-.y.K ",
"M x.X.O.} S.T Y -.X.X.E q l =.#.* a.S.} O.4.o.o.N #.Z.P.4.4.,.Z.0 L U.O.^.@.X.N.X.&.c ;.R.-.&.X.@.z $ 1 E -.-.;.m - v o...M.p.K ",
"M x.X.X.} S.T T -.X.@.E q l =.#.* d.J.} O.4.o.o.N M.M.~.4.4.,.Z.0 L U.O.#.k k =.T *.j ;.Q.-.X.X.E J % < E -.=.=.X.* 8 ....p.y.M ",
"9 x.@.X.X.;.Y E -.X.@.m > z [.@.* / ^.*.} *.#.o. .`.P.S.4.4.,.Z.0 f U.O.T j j T -.&.Z T !.=.X.-.@.l 3 & J '.=.X.@.9 - m T M.#.v ",
"9 x.@.X.X.N.U +.-...@.m > J ~.@.* ~ ^.*.X.-.#.o.Y `.P.D.4.4.,.Z.0 f L.O.v m v v -.X.Z T !.=.X.-.z.q u 2 l N.=.O.O.n 8 8 Y x.#.v ",
"9 x.#.X.X.N.U @.-...@.m : P ;.#.* ~ ^.*.X.-.#.o.Y `.P.S.4.4.,.Z.0 f U.O.Z , , Z -.&.Z A }.=.X.-.n.8 S Q > z.@.*.O.O.9 - Y n.#.v ",
"9 x.#.X.X.;.U @.-...@.m = E =.#.% ~ ^.X.X.-.#.o.Y `.P.D.4.4.,.Z.0 f J.O.j h h k -.=.Z T }.=.X.=.C., S ( = W X.O.O.O.J 7 Y n.#.v ",
"9 -.#.X.;.S.v N.=...@.z > @.=.#.% p @.*.*.X.{.o.#.{.Z.D.4.4.,.Z.0 f P.v 8 W X.j -.-.Z T @.=.@.=.z.8 9 x.= M X.X.X.-.X.9 j +.#.M ",
"9 =.O.X.;.-.v -.=...@.z > @.=.#.@ p @.*.*.X.P.o.#.`.Z.D.4.4.,.Z.0 f P.v 8 @.~.Z =.-.Z T @.=.@.=.z.9 9 =.> j @.X.} *.O.c j +.w.P ",
"9 =.O.X.4.O.Z =.*...@.z > @.=.#.@ p @.*.*.-.Z.#.@.`.M.S.4.4.,.Z.0 f P.v j v.R.A =.-.Z T =.@.@.=.n.9 9 =.8 8 #.X.{ *.-.Z j +.e.P ",
"9 =.O.X.R.X.A #.*...@.z > @.=.#.@ D @.;.X.;.-.#.@.P.-.2.4.4.,.Z.4 p P.v Z =.-.=.=.-.Z X.=.X.X.=.n.9 9 =.h > -.X.{ *.*.A j +.@.P ",
"j X.X.O.~...A X.=.X.@.z 8 #.=.@.$ G Y &.-.X.2.D.@.U.P.2.!.4.,.#.4 i S.c X.-.;.;.Z =.j @.=.X.X.x.n.> 9 =.J = v ;.} *.*.A @.M @.P ",
"j X.X.#.-...X.#.-.X.#.m 8 #.-.@.$ G T &.-.X.Z.P...#.P.Z.!.4.,.$.4 w Z.c X.=.;.;.T @.h -.-.X.X.v.n.> 9 =.Y = m =.} *.*.A @.M @.P ",
"j O.X.#.X.A X.=.;.X.-.m 9 y.N.w.% L ..*.;.X.Z.P.N #.S.D.!.D.,.#.4 w Z.c X.-.;.;.@.T 8 N.-.....x.m.: 9 =.@.= j X.} *.*.A @.M E J ",
"h @.@.@.T ..@.O.-.X.@.m 8 #.-.#.% L T *.;.X.2.P.m @.Z.D.).4.,.p.4 i U.c &.-.;.-.@.N > ^.=...A M.m.: 8 =.r.> j T X.*.*.A @.M E J ",
"% l P m @.@.@.#.X.{ #.X.j @.-.@.% H N 6.X.O.D.{.N K {.*.0.4.2.p.5 s U.c =.N.;.-.X.M 9 ~.-.O.V -.m.8 8 V.r.> l T X.*.*.A @.M E J ",
"l r.V.w.@.@.@.#.X.{ *.X.j @.;.#.* H N 6.X.O.4.).K N !.,.0.4.2.p.t a U.c =.N.;.=...m 9 ~.-.O.[ 3.m.8 8 V.r.> l E X.*.*.A @.M E m ",
"z r.B.E @.X.@.=.X.{ *.X.j @.;.#.* H N 4...O.4.)...m D.4.0.0.2.p.t a _.c =.N.;.=...m 9 P.-.O.V 4.J.8 8 V.r.> z E X.*.*.A -.J E m ",
"z w.w.U X...X.*.X.{ O.X.z @.;.#.* H N S...O.0.).o.c 4.0.0.4.2.p.t a _.c =.N.;.=...n 9 ~.-.O.V 4.m.8 7 V.r.> z E X.*.O.{ -.J E m ",
"j n.@.Z X.{ } *.X.X.#.N.z U *...O H M X.#.-.(.{...9 ).9.0.0.D.k.t s _.c =.N.;.*.Y N n ~.-.*.| { m.9 > XX@.& P n.X.O.O...-.J E J ",
"j -.X.T X.{ } *.O.X.X.m.h U =.X.@ H M #.#.-.(.{.@.c D.4.0.0.D.k.t d _.c =.N.;.O.N ..N D.-.*.| { n.9 > V.E = E x.X.O.O.X.-.J E J ",
"m @.T X.X.{ } *.O.X.X.m.8 J ;.=.@ L N =.#.2.(.).p.Z 4.4.0.0.S.k.t d _.c =.N.;.=.v @...-.4.*.} { n.9 > XXY = W @.X.O.X.X.-.Y W J ",
"m X.Z X.X.{ } *.O.X.#.m., M ;.-.@ L J -.#.-.(.).Z.o.2.0.0.E.S.k.t s _.c =.N.N.=.c #...#.4.*.} { n.9 > XXP > @.T X.O.X.X.-.U W J ",
"M @.v -.X.} } *.;.Z =.=.= J S.@.@ L m Z -.M.D.).#.#.4.0.).4.P._.t y _.c T ].^.A c #.o.#.4.*.} { m.j > oXE 9 N.X.X.*.X.A =.Y @.x ",
"M @.m -.X.} } *.-.A =.T = U -.#.@ L m T -.M.D.).#.$.4.0.,.O.M.k.t t {.c U ].~.A v -.O.-.4.*.} Z m.j > oXY 9 4.} } *.X.A -.Y @.x ",
"M @.m -.X.} } *.*.} X.v = E #.#.% L m T -.M.D./.#.D.).0.V n #.h.t y {.c C N.N.Z c -.X.-.D.*.{ Z m.j > oXY 9 4.} | *.X.A #.T @.z ",
"M @.m -.X.X.} *.&.X.X.h & W X.#.% P M ..-.M.P.(.Z.P.).9.c c ..u.t y OXc x N.v.M v 2.#.-.D.*.{ Z m.j > oXY 9 4.} | *.X.A #.T @.z ",
"z #.h -.X.X.X.X.*.X.X.8 : t.;.X.% ! K m U m.{./.#.P.).{ r - c K 5 y OXv x C.v.h Z S.O.-.D.-.{ Z m.9 8 V.E j *.} { *.{ X.T x.z.z ",
"z @.h -.X.X.X.X.=.X.X.8 : t.N.@.% ! K m U m.{./.#.D.).{ [ N 8 m 5 0 OXv x C.N.h Z S.O.#.D.-.{ Z m.9 8 V.E j O.} { *.{ X.T #.@.9 ",
"z #.h -.X.X.X.X.=.X.X.8 = t.N.@.% ! K m U m.{./.#.D.0.{ O.2.m e ; 6 {.v x C.v.h Z 4.O.O.4.#.{ N ^.9 8 ].@.h X.O.{ *.{ X.@.x.@.8 ",
"z #.h -.X.X.X.X.=.X.X.8 : t.N.@.$ ! J m U m.{.{.O.D.4.{ O.#.Z.H ; 6 {.c k C.x.9 n -.O.#.4.O.{ N ^.9 8 ].w.9 X.*.{ *.{ X.M U z & ",
"M @.z @.W X.X.*.*.X.T 8 : W -.#.$ ! J m 8 @.{.{.(.0.9.{ -.#.S.H # y P.Z v C.U v *.*.O.=.6.-.j m C.9 8 ].w.h U X.O.*.X.T =.@.x.j ",
"M @.z W E W X.*.X.T X.9 : W =.@.$ ! J m 9 K P.{.).0.,.{ -.#.S.H # y P.Z v C.U v *.*.=.=.7.} c K C.9 8 ].e.j U @.O.*.@.T =.X.-.j ",
"m w.J E E W X.*.X.X.=.j = E @.+.% ! J m j 9 P.{.).0.,.{ 2.-.S.K # y P.V v ].U v *.*.=.=.E.v m +.C.9 8 V.t.j U @.O.*.@.T =.X.x.j ",
"z x.J Y W W X.*.X.X.-.M & U X.T & ) P M z > _.{.).4.,...-.-.Z.K # y P.V v ].U v *.*.*.=.!.j N #.C.9 8 V.e.j K @.O.*.@.T =.X.x.j ",
"M w.Y z M =.X.*.*.X.=.W & z @.#.& _ P M j > m $X!.4.2.v -.Z.Z.K * g $XV v ].U M ;.*.} 6.X.: Z v.].9 8 V.t.> J +.X.-.N -.=.X.x.j ",
"M x.E M x X.X.*.*.X.@.@.> 8 X.-.& ) J m m 8 9 p.!.2.2.v M.Z.M.K * g $XZ v ].U M 6.} %.3.M 8 T N.^.9 8 V.t.> J +.X.-.U -.-.X.x.j ",
"M x.@.E h C *.*.*.=.@.z.l : T x.& _ P M U j > N !.2.Z.v Z.S.Z.K * g #X{ v ].U m Q.V :.*.9 z @.-.^.9 8 ].t.> J ..X.-.U -.=.X.-.j ",
"M x.#.@.9 k -.*.*.=.=.z.J & U n.& / P M U m 7 9 {.S.2.m Z.Z.Z.K * d #X{ v ].U m !.V 7.*.= J #.;.^.9 8 ].t.> M ..X.-.U -.=.X.-.j ",
"M v.z.@.h : =.;.=.=.=.z.W = J V.& / P M K K 8 * J.~.M.v m J.S.K + d #X[ v =.U T ^.T S.c > @.3.3.^.9 8 oX( > M @.X...U ].=.X.-.j ",
"M v.z.@.m , 9 R.=.=.=.z.w.> 1 d.= / Y U m Y j * N {.-.N m M.S.K + d #X[ v =.T U x.T _.j 9 -.>.>.R.9 8 oXW > U X.X...U ].=.X.-.j ",
"M v.=.@.C h = T =.=.=.=.w.z & ^ = / E U m T m = - {.-.T m N.N.K + d #X{ n -.T Y @.T m.> m ^.7.>.R.9 8 oXE > T T X.X.K ].=.X.-.j ",
"M v.=.@.C h > 8 =.=.=.=.#.z = S & / U M M Y K > % J.X...v M.S.K + d #X{ n -.Y U U T m.: U `.7.>.R.9 8 oXP 8 E T O.X.K ].=.X.-.j ",
"M -.=.@.Z T h % M ].R.*.-.E 1 < $ / T m N Y Y z = n.@.@.c @.'.K + d #X{ X.-.#.U Y E e.> #.S.9.9.R.9 8 oXF 8 @.T X.X.T m.X.X.x.z ",
"M -.=.@.Z @.M = 8 z.6.*.*.E u = $ / E m N Y E K = n.y.@.m Y .XI + d #X{ X.x.@.U Y E @.> #.S.3.7.R.9 8 oXF 8 @.T X.X.T m.X.X.x.z ",
"M -.#.@.T N.@.8 = W R.*.} E G & $ / E m N U E E - m.x.@...j +XI + y @X[ X.x.@.U Y E @.7 #.S.>.7.R.9 8 XXF 8 @...X.X.T m.X.X.x.z ",
"M -.#.@.U ^.m.m = x =.*.{ T G < $ / E m N N Y K > J.-.@.@.8 +X+.+ i {.' X.-.@.N Y E @.7 #.4.>.7.D.9 8 oXF 8 @...X.X.T m.O.X.x.z ",
"m -.#.@.U M.'.T = 8 ^.7.*.{ m > $ / E m n Z Y J > J.-.@.#.j .Xq.+ a OXn @.-.D.n ..@.n.j ..4.9.9.1.r 9 _.Y j @.T O.X.n -.@.X.x.j ",
"m -.#.@.T -.^.w.> q -.6.3.} n 9 % ` W M n Z Y M 7 _.y.@.@.j [.q.@ a OXm @.-.(.b K +.J.j ..-.9.9.1.r 9 _.K h @.T X.X.Z @.@.X.x.j ",
"m M.#.@...@.M.B.D , @.;.!.O.Z z % ` e.N n Z Y m 8 `.M.@.@.j [.q.@ a OXM @.M.(.b m E J.v ..-.9.9.1.r 9 _.K h @.T { #.T X.@.X.x.j ",
"m M.@.@...#.#.w.P > T -.!.*.A m & ` e.U Z Y T M 8 `.M...@.j `.q.+ a OXv @.-.(.b c T `.n ..-.4.9.1.r 9 _.K h @.T A =.....@.X.x.j ",
"m U.o.@...#.#.i.P > @.=.;.*.v Y = u t.U Z ..+.K c J.#.Y M.m `.u.+ a OXv -.-.(.o.Y E @.#.N ~.7.,.Z.r 9 _.e.9 T X.A =.#.Z @.X.x.j ",
"m J...@...#.x.i.P % @.-.;.*.v Y & 2 e.U Z Y T M @.[.J...[...+X_.@ a OXM M.M.).o.Y +.@.#...-.).,.Z.r 9 _.e.9 Z X.A =.#.T @.X.x.j ",
"m J...#...#.#.i.F . @.;.;.*.v Y $ < W m v n K m J.`.J.Y [...+X_.@ a OXM M.M.).o.Y +.@.#.#...!.9.Z.r 9 _.@.j M X.A =.#.T @.X.x.j ",
"m J...#...#.#.i.D   @.E.;.*.v Y O = P j c v m j ..@...T M.m J.q.@ a OXv -.-.(.o.Y +.@.#.M.n !.4.Z.r 9 _.+.z v X.A =.#.T @.X.x.j "
};
