/* XPM */
static char *north[] = {
/* width height num_colors chars_per_pixel */
"64 64 2 1",
/* colors */
". c #d400ff",
"# c #aa0093",
/* pixels */
"................................................................",
"................................................................",
"..####..........####..........####..........####................",
"..####..........####..........####..........####................",
"..####..........####..........####..........####................",
"..####..........####..........####..........####................",
"................................................................",
"................................................................",
"................................................................",
"................................................................",
"..####..........####..........####..........####................",
"..####..........####..........####..........####................",
"..####..........####..........####..........####................",
"..####..........####..........####..........####................",
"................................................................",
"................................................................",
"................................................................",
"................................................................",
"..####..........####..........####..........####................",
"..####..........####..........####..........####................",
"..####..........####..........####..........####................",
"..####..........####..........####..........####................",
"................................................................",
"................................................................",
"................................................................",
"................................................................",
"..####..........####..........####..........####................",
"..####..........####..........####..........####................",
"..####..........####..........####..........####................",
"..####..........####..........####..........####................",
"................................................................",
"................................................................",
"................................................................",
"................................................................",
"..####..........####..........####..........####................",
"..####..........####..........####..........####................",
"..####..........####..........####..........####................",
"..####..........####..........####..........####................",
"................................................................",
"................................................................",
"................................................................",
"................................................................",
"..####..........####..........####..........####................",
"..####..........####..........####..........####................",
"..####..........####..........####..........####................",
"..####..........####..........####..........####................",
"................................................................",
"................................................................",
"................................................................",
"................................................................",
"..####..........####..........####..........####................",
"..####..........####..........####..........####................",
"..####..........####..........####..........####................",
"..####..........####..........####..........####................",
"................................................................",
"................................................................",
"................................................................",
"................................................................",
"..####..........####..........####..........####................",
"..####..........####..........####..........####................",
"..####..........####..........####..........####................",
"..####..........####..........####..........####................",
"................................................................",
"................................................................"
};
