/* XPM */
static char *north[] = {
/* width height num_colors chars_per_pixel */
"64 64 2 1",
/* colors */
". c #d400ffff",
"# c #aa0093ff",
/* pixels */
"................................................................",
"................................................................",
"..####..........####..........####..........####................",
"..####..........####..........####..........####................",
"..####..........####..........####..........####................",
"..####..........####..........####..........####................",
"................................................................",
"................................................................",
"................................................................",
"................................................................",
"..####..........####..........####..........####................",
"..####..........####..........####..........####................",
"..####..........####..........####..........####................",
"..####..........####..........####..........####................",
"................................................................",
"................................................................",
"................................................................",
"................................................................",
"..####..........####..........####..........####................",
"..####..........####..........####..........####................",
"..####..........####..........####..........####................",
"..####..........####..........####..........####................",
"................................................................",
"................................................................",
"................................................................",
"................................................................",
"..####..........####..........####..........####................",
"..####..........####..........####..........####................",
"..####..........####..........####..........####................",
"..####..........####..........####..........####................",
"................................................................",
"................................................................",
"................................................................",
"................................................................",
"..####..........####..........####..........####................",
"..####..........####..........####..........####................",
"..####..........####..........####..........####................",
"..####..........####..........####..........####................",
"................................................................",
"................................................................",
"................................................................",
"................................................................",
"..####..........####..........####..........####................",
"..####..........####..........####..........####................",
"..####..........####..........####..........####................",
"..####..........####..........####..........####................",
"................................................................",
"................................................................",
"................................................................",
"................................................................",
"..####..........####..........####..........####................",
"..####..........####..........####..........####................",
"..####..........####..........####..........####................",
"..####..........####..........####..........####................",
"................................................................",
"................................................................",
"................................................................",
"................................................................",
"..####..........####..........####..........####................",
"..####..........####..........####..........####................",
"..####..........####..........####..........####................",
"..####..........####..........####..........####................",
"................................................................",
"................................................................"
};
